<svg width="1200" height="1556" viewBox="0 0 1200 1556" fill="none" xmlns="http://www.w3.org/2000/svg">
    <path d="M1067.74 1345.98L833.013 1286.57H815.65C815.65 1277.9 819.122 1235.69 833.013 1136.26C850.376 1011.98 792.499 767.252 796.679 741.238C800.023 720.426 792.713 685.035 788.64 669.94C758.029 658.378 721.438 636.861 706.968 627.547C685.875 619.839 662.809 576.59 653.913 555.929C553.849 514.249 530.548 443.499 531.405 413.334C536.336 436.35 558.222 487.329 606.325 507.112C654.428 526.896 675.028 547.9 679.315 555.929C706.84 613.223 759.594 633.97 782.531 637.182C774.814 550.083 746.518 504.115 733.335 492.018L552.949 408.195C539.98 402.949 511.277 390.467 500.216 382.502C489.155 374.538 446.947 379.184 427.225 382.502C446.003 374.281 483.71 370.084 500.216 369.014L504.074 351.671C509.991 374.538 542.338 390.531 557.772 395.67C605.103 402.864 632.584 417.723 640.409 424.253C673.077 433.246 731.62 470.393 756.807 487.843L755.521 417.188C676.421 386.356 656.486 352.634 633.656 341.394C615.393 332.401 525.725 332.08 483.174 333.044C465.425 361.049 442.981 369.977 433.978 370.941L432.37 369.014C453.721 363.875 472.563 334.971 479.315 321.161L506.647 319.234C507.676 318.72 505.36 313.025 504.074 310.241L507.933 308.636C513.077 309.663 514.149 317.414 514.042 321.161C536.164 317.307 597 320.84 624.653 323.088C576.807 255.002 506.325 230.701 477.065 227.061L377.708 135.209C380.923 123.969 373.849 122.684 373.206 121.4C372.692 120.372 342.552 119.044 327.547 118.509V111.122C338.051 111.444 362.466 112.6 376.1 114.655C389.733 116.711 387.14 128.144 384.139 133.604C393.142 137.672 414.685 147.735 428.833 155.442C441.39 162.284 445.42 171.655 446.092 176.82L444.91 157.048C429.476 139.834 425.832 101.916 425.939 85.1085H430.763C428.19 122.106 445.125 148.484 453.914 157.048C452.37 167.068 454.557 181.563 455.843 187.558L471.92 184.026L468.383 193.66C471.47 206.25 480.173 210.468 484.139 211.003C520.473 213.251 556.164 233.484 579.959 250.827C598.994 264.701 623.689 294.29 633.656 307.351C671.47 345.376 729.584 374.794 753.914 384.75L747.161 314.416C737.128 300.799 691.534 263.994 669.99 247.294C641.266 227.917 580.795 184.475 568.705 165.72C553.592 142.275 506.325 86.3932 492.177 56.8465C480.859 33.2091 450.806 10.1713 437.193 1.60703H451.984C460.473 4.69017 482.317 23.8741 492.177 33.0807V1.60703H497.644L506.325 52.9926C504.396 53.3137 511.662 68.5367 556.164 126.859C600.666 185.182 631.727 200.833 641.695 201.368L645.553 165.72L655.199 171.822L651.984 208.755L660.666 211.003L662.273 186.916L669.99 184.026V224.492C680.28 230.658 725.725 269.882 747.161 288.724C745.339 267.848 741.244 223.079 739.444 211.003C737.193 195.909 720.656 80.6037 719.83 70.9775C718.865 59.7369 715.221 21.0907 714.685 0.643555H781.887C781.566 25.9081 783.238 74.1249 792.498 64.8755C801.759 55.6261 811.362 18.2003 815.006 0.643555H909.54C902.573 73.5468 895.778 220.574 924.331 225.455C952.884 230.337 979.315 77.6148 988.961 0.643555H1046.2C1051.34 38.6689 1036.34 110.694 1028.19 141.954C1033.59 126.024 1073.1 41.1097 1092.18 0.643555H1122.4L1092.18 49.781L1134.62 23.1247C1091.41 54.9838 1072.03 141.954 1067.74 181.456L1196.36 136.494V148.377V159.939L1067.74 204.901C1062.92 224.171 1045.3 272.794 1013.4 313.132C981.502 353.469 981.03 403.378 984.781 423.29C1038.29 558.947 1044.7 804.078 1035.59 908.562C1035.59 920.123 1036.23 921.729 1038.8 1043.13C1041.44 1167.82 1048.45 1296.09 1067.74 1345.98Z"
          fill="#7B695B"/>
</svg>
