<svg width="1208" height="1565" viewBox="0 0 1208 1565" fill="none" xmlns="http://www.w3.org/2000/svg">
    <path d="M1078.74 1334.73L844.013 1275.79H826.65C826.65 1267.18 830.122 1225.32 844.013 1126.67C861.376 1003.36 803.499 760.565 807.679 734.756C811.023 714.109 803.713 678.996 799.64 664.02C769.029 652.55 732.438 631.202 717.968 621.962C696.875 614.315 673.809 571.406 664.913 550.908C564.849 509.556 541.548 439.364 542.405 409.437C547.336 432.272 569.222 482.849 617.325 502.476C665.428 522.104 686.028 542.942 690.315 550.908C717.84 607.751 770.594 628.334 793.531 631.52C785.814 545.109 757.518 499.502 744.335 487.501L563.949 404.339C550.98 399.134 522.277 386.75 511.216 378.849C500.155 370.947 457.947 375.556 438.225 378.849C457.003 370.692 494.71 366.528 511.216 365.466L515.074 348.26C520.991 370.947 553.338 386.814 568.772 391.912C616.103 399.05 643.584 413.791 651.409 420.27C684.077 429.192 742.62 466.046 767.807 483.358L766.521 413.26C687.421 382.672 667.486 349.216 644.656 338.064C626.393 329.143 536.725 328.824 494.174 329.78C476.425 357.564 453.981 366.422 444.978 367.378L443.37 365.466C464.721 360.368 483.563 331.692 490.315 317.991L517.647 316.079C518.676 315.569 516.36 309.919 515.074 307.157L518.933 305.564C524.077 306.584 525.149 314.273 525.042 317.991C547.164 314.167 608 317.672 635.653 319.902C587.807 252.353 517.325 228.244 488.065 224.633L388.708 133.505C391.923 122.353 384.849 121.079 384.206 119.804C383.692 118.784 353.552 117.467 338.547 116.936V109.608C349.051 109.927 373.466 111.074 387.1 113.113C400.733 115.152 398.14 126.495 395.139 131.912C404.142 135.948 425.685 145.932 439.833 153.579C452.39 160.366 456.42 169.664 457.092 174.787L455.91 155.172C440.476 138.093 436.832 100.474 436.939 83.7991H441.763C439.19 120.505 456.125 146.675 464.914 155.172C463.37 165.113 465.557 179.494 466.843 185.441L482.92 181.937L479.383 191.495C482.47 203.986 491.173 208.17 495.139 208.701C531.473 210.932 567.164 231.005 590.959 248.211C609.994 261.976 634.689 291.332 644.656 304.29C682.47 342.015 740.584 371.201 764.914 381.079L758.161 311.299C748.128 297.79 702.534 261.275 680.99 244.706C652.266 225.482 591.795 182.383 579.705 163.775C564.592 140.515 517.325 85.0736 503.177 55.7599C491.859 32.3089 461.806 9.45263 448.193 0.955884H462.984C471.473 4.01471 493.317 23.0474 503.177 32.1814V0.955884H508.644L517.325 51.9363C515.396 52.255 522.662 67.3579 567.164 125.221C611.666 183.084 642.727 198.611 652.695 199.142L656.553 163.775L666.199 169.829L662.984 206.471L671.666 208.701L673.273 184.804L680.99 181.937V222.084C691.28 228.201 736.725 267.116 758.161 285.809C756.339 265.098 752.244 220.682 750.444 208.701C748.193 193.726 731.656 79.3298 730.83 69.7795C729.865 58.6275 726.221 20.286 725.685 0H792.887C792.566 25.0654 794.238 72.9021 803.498 63.7256C812.759 54.5491 822.362 17.4183 826.006 0H920.54C913.573 72.3285 906.778 218.196 935.331 223.04C963.884 227.883 990.315 76.3645 999.961 0H1057.2C1062.34 37.7255 1047.34 109.183 1039.19 140.196C1044.59 124.392 1084.1 40.1471 1103.18 0H1133.4L1103.18 48.7501L1145.62 22.304C1102.41 53.9118 1083.03 140.196 1078.74 179.387L1207.36 134.78V146.569V158.039L1078.74 202.647C1073.92 221.765 1056.3 270.005 1024.4 310.025C992.502 350.045 992.03 399.559 995.781 419.314C1049.29 553.903 1055.7 797.101 1046.59 900.761C1046.59 912.232 1047.23 913.825 1049.8 1034.27C1052.44 1157.97 1059.45 1285.24 1078.74 1334.73Z"
          fill="#fff"/>
</svg>
