<svg width="1203" height="1555" viewBox="0 0 1203 1555" fill="none" xmlns="http://www.w3.org/2000/svg">
    <path d="M727.973 565.882C954.597 443.953 1135.26 549.054 1199.36 618.615V867.489C1191.96 873.599 1015.11 977.779 836.655 1022.8C738.906 1050.13 537.941 1089.35 401.285 1076.17C272.668 1167.49 81.6709 1236.84 0.320312 1258.16V1087.1C24.1145 1084.85 67.2013 1077.14 73.9538 1057.52C75.7902 1052.19 77.2764 1039.52 77.4907 1033.73C89.5808 1012.63 163.128 978.851 198.391 964.596C213.825 947.875 212.217 912.827 217.362 903.824C221.478 896.621 250.16 877.457 263.986 868.776C271.703 800.094 306.43 779.387 318.97 771.026C353.753 755.958 368.809 747.232 408.037 732.441C447.266 717.65 508.037 703.502 508.037 703.502C531.832 698.679 550.16 705.753 563.986 695.785C588.745 674.885 566.344 647.661 570.095 642.409C594.533 620.544 639.548 570.062 656.59 547.554C667.651 556.043 708.787 563.309 727.973 565.882Z"
          fill="#fff"/>
</svg>
