<svg width="1203" height="1555" viewBox="0 0 1203 1555" fill="none" xmlns="http://www.w3.org/2000/svg">
    <path d="M0.96463 742.364L0 335.386C7.9314 332.013 36.9775 330.425 85.8521 345.829C134.727 361.234 130.868 400.945 121.865 414.435C44.0514 463.389 23.9014 485.079 27.6527 496.937C29.3676 509.774 37.8778 538.907 69.7749 557.967C109.646 581.792 124.437 646.739 126.688 658.488C128.939 670.237 234.405 721.607 251.125 689.493C267.846 657.378 246.624 650.996 233.762 650.126C206.752 641.967 208.682 623.784 215.434 620.629C280.257 604.964 298.392 597.349 299.357 595.499C311.447 557.38 268.06 565.176 246.945 569.418C231.768 529.21 266.238 460.415 285.531 443.373C276.527 490.37 289.711 494.543 299.357 491.715C357.749 465.344 490.89 461.363 550.161 462.668C561.308 455.597 582.83 428.53 579.743 376.834C576.656 325.138 615.541 290.673 635.37 279.903C644.695 272.07 680.515 254.316 749.196 245.961C835.048 235.517 979.1 352.03 1015.11 402.943C1051.13 453.856 1074.6 480.945 1121.54 478.66C1159.31 476.822 1188.96 516.689 1199.36 538.229V618.615C1044.69 462.285 821.222 515.819 725.724 567.168L659.486 553.02L569.775 643.052C592.926 716.013 548.232 712.131 509.325 712.131C420.099 712.131 350.161 764.206 320.9 780.994C304.952 783.605 273.633 824.227 262.701 843.373L266.238 742.364C169.132 784.599 47.6956 752.481 0.96463 742.364Z"
          fill="#4E92BF"/>
    <path d="M97.1061 294.215C63.8126 257.261 0 257.708 0 262.178V345.623C0 291.384 64.7374 288.751 97.1061 294.215Z"
          fill="#4E92BF"/>
</svg>
