<svg width="1203" height="1556" viewBox="0 0 1203 1556" fill="none" xmlns="http://www.w3.org/2000/svg">
    <path d="M140.979 0H0.956761V262.243H27.0295C64.8839 266.104 88.7256 285.947 95.9146 295.385C10.9354 281.485 0.643781 322.736 0 343.651C34.2277 343.329 105.571 347.383 121.022 377.758C140.336 415.727 110.4 416.371 51.8156 458.845C-6.7686 501.318 53.5456 550.634 62.1161 556.663C70.8067 562.776 118.125 602.354 121.022 643.863C123.919 685.371 234.328 731.062 254.607 684.727C274.886 638.393 215.336 657.377 212.117 633.244C209.399 612.862 297.218 618.121 300.959 591.736C306.753 550.871 251.71 574.146 249.779 565.672C236.388 512.387 267.59 463.242 284.865 445.33C278.105 467.961 273.277 509.363 308.041 493.918C351.496 474.611 486.369 469.785 534.652 470.75C573.279 471.522 581.219 409.077 580.361 377.758C573.923 348.37 593.751 283.158 724.568 257.416C888.089 225.239 961.158 386.446 986.265 392.238C1011.37 398.03 1043.24 446.296 1048.07 453.053C1052.9 459.81 1071.57 485.23 1124.68 485.23C1167.17 485.23 1192.17 530.278 1199.36 552.802V134.822H732.615H611.584C587.378 134.822 425.317 188.665 347.312 215.586C367.655 173.112 320.38 170.86 294.2 175.043L51.8156 215.586C126.172 194.349 188.297 154.45 202.139 125.169C227.568 59.8493 171.559 13.0853 140.979 0Z"
          fill="#fff"/>
</svg>
