<svg width="24" height="24" viewBox="0 0 24 24" fill="none" xmlns="http://www.w3.org/2000/svg">
    <path d="M12.7764 7.64143C12.7818 7.36159 12.5564 7.13184 12.2765 7.13184H11.7187C11.4388 7.13184 11.2134 7.36159 11.2188 7.64143L11.3242 13.1359C11.3294 13.4083 11.5517 13.6263 11.8241 13.6263H12.1711C12.4435 13.6263 12.6658 13.4083 12.671 13.1359L12.7764 7.64143Z"
          fill="#161619"/>
    <path d="M11.3191 16.7631C11.5077 16.9485 11.7346 17.0412 11.9999 17.0412C12.1725 17.0412 12.3307 16.998 12.4745 16.9118C12.6183 16.8255 12.7334 16.7104 12.8197 16.5666C12.9092 16.4196 12.9555 16.2582 12.9587 16.0824C12.9555 15.8203 12.8596 15.5966 12.6711 15.4112C12.4825 15.2227 12.2588 15.1284 11.9999 15.1284C11.7346 15.1284 11.5077 15.2227 11.3191 15.4112C11.1306 15.5966 11.0379 15.8203 11.0411 16.0824C11.0379 16.3477 11.1306 16.5746 11.3191 16.7631Z"
          fill="#161619"/>
    <path fill-rule="evenodd" clip-rule="evenodd"
          d="M12 22C17.5228 22 22 17.5228 22 12C22 6.47715 17.5228 2 12 2C6.47715 2 2 6.47715 2 12C2 17.5228 6.47715 22 12 22ZM12 20.5C16.6944 20.5 20.5 16.6944 20.5 12C20.5 7.30558 16.6944 3.5 12 3.5C7.30558 3.5 3.5 7.30558 3.5 12C3.5 16.6944 7.30558 20.5 12 20.5Z"
          fill="#161619"/>
</svg>
