<?xml version="1.0" encoding="UTF-8"?>
<svg id="Calque_1" data-name="Calque 1" xmlns="http://www.w3.org/2000/svg" viewBox="0 0 409.92 211.57">
  <defs>
    <style>
      .cls-1 {
        fill: #fff;
      }
    </style>
  </defs>
  <path class="cls-1" d="M20.88.32l.55.17c12.55,28.88,25.08,57.8,37.58,86.76L96.1.56l.62-.24h9.6v90.23c.49,4.22,2.54,6.45,6.66,7.25.58.11,3.06.19,3.18.3.08.08-.06,1.78,0,2.16h-30.48c.06-.38-.09-2.07,0-2.16.14-.14,3.33-.15,3.96-.24,2.25-.33,4.97-1.05,6.17-3.18.19-.35.91-2.43.91-2.69V22.84l-33.09,77.27c-.28.4-8.5.07-9.64.03l-.19-.29L20.64,22.37v77.89h-9.6V10.02c0-.5-.79-2.69-1.07-3.24C8.11,3.1,3.74,2.52,0,2.47V.32h20.88Z"/>
  <path class="cls-1" d="M224.4,52.56c-1.29-5.43-5.17-10.22-10.44-12.23-7.15-2.73-20.79-1.82-24.17,6.31-6.1,14.7,16.27,14.67,25.05,16.77,11.14,2.67,19.29,7.69,18.45,20.43-1.2,18.18-27.03,21.64-40.49,15.97-7.17-3.02-12.53-8.85-14.45-16.44l7.53-3.01c1.63,5.71,5.73,10.71,11.33,12.88,8.29,3.22,24.54,1.93,27.22-8.41,2.27-8.75-4.48-11.89-11.6-13.65-11.23-2.77-30.13-2.25-32.33-17.09-1.83-12.34,6.66-20.19,18.15-22.08,13.6-2.24,27.11,1.51,32.4,15.21.22.56,1.03,2.43.54,2.82l-7.2,2.52Z"/>
  <path class="cls-1" d="M125.52,33.63v42.79c.49,9.04,4.47,17.22,14.51,17.86,15.04.95,20.96-12.7,21.74-25.52v-35.12s8.87,0,8.87,0v66.62h-8.88v-11.98l-4.09,6.34c-13.87,16-40.45,5.97-40.79-15.33v-45.65s8.64,0,8.64,0Z"/>
  <path class="cls-1" d="M18.72,111.04l7.56,24.45,7.32-24.45h7.68v30.2h-4.56v-24.92l-8.07,24.94c-.94-.19-4.55.31-5.02-.25l-8.04-24.69v24.92h-4.56v-30.2h7.68Z"/>
  <path class="cls-1" d="M83.28,124.94h-4.2c-.12,0-.78-1.46-1.08-1.8-2.69-3.03-10.78-.77-7.92,2.88,1.05,1.34,7.14,1.94,9.25,2.75,6.99,2.67,5.4,10.77-1.37,12.54-5.56,1.45-12.45-.59-13.15-7.02h4.56c.08,0,.1,1.02.43,1.61,2.65,4.79,12.71,1.5,8.93-2.69-2.66-2.95-12.26-.72-13.39-7.24-1.66-9.66,16.99-10.56,17.94-1.02Z"/>
  <path class="cls-1" d="M286.8,159.69h-4.2c-.23,0-.52-1.12-.73-1.43-2.48-3.56-11.23-1.27-8.27,2.51,1.05,1.34,7.14,1.94,9.25,2.75s3.98,2.18,4.38,4.5c1.83,10.75-18.3,11.45-18.9,1.02h4.56c.06,0,0,.72.19,1.13,1.25,2.63,4.41,3.29,7.03,2.6,3.12-.82,4.11-4.1,1-5.58-3.8-1.82-11.27-.83-12.24-6.47-1.66-9.66,16.99-10.56,17.94-1.02Z"/>
  <path class="cls-1" d="M73.68,159.69h-4.2c-.23,0-.52-1.12-.73-1.43-2.48-3.56-11.23-1.27-8.27,2.51,1.05,1.34,7.14,1.94,9.25,2.75s3.98,2.18,4.38,4.5c1.83,10.75-18.3,11.45-18.9,1.02h4.56c.06,0,0,.72.19,1.13,1.25,2.63,4.41,3.29,7.03,2.6,3.12-.82,4.11-4.1,1-5.58-3.8-1.82-11.27-.83-12.24-6.47-1.66-9.66,16.99-10.56,17.94-1.02Z"/>
  <path class="cls-1" d="M48.48,118.71v14.98c0,.22.47,1.71.6,2.03,1.54,3.76,7.15,2.78,8.56-.79.14-.35.67-2.21.67-2.44v-13.78h4.32v22.53h-4.32v-2.88c-1.24,1.37-2.2,2.47-4.08,3-3.31.94-7.35.36-9.08-2.92-.32-.61-1-2.71-1-3.31v-16.42h4.32Z"/>
  <path class="cls-1" d="M144.24,188.45v14.98c0,.22.47,1.71.6,2.03,1.54,3.76,7.15,2.78,8.56-.79.14-.35.67-2.21.67-2.44v-13.78h4.32v22.53h-4.32v-2.88c-1.24,1.37-2.2,2.47-4.08,3-3.31.94-7.35.36-9.08-2.92-.32-.61-1-2.71-1-3.31v-16.42h4.32Z"/>
  <path class="cls-1" d="M160.08,153.46v14.98c0,.22.47,1.71.6,2.03,1.54,3.76,7.15,2.78,8.56-.79.14-.35.67-2.21.67-2.44v-13.78h4.32v22.53h-4.32v-2.88c-1.24,1.37-2.2,2.47-4.08,3-3.31.94-7.35.36-9.08-2.92-.32-.61-1-2.71-1-3.31v-16.42h4.32Z"/>
  <path class="cls-1" d="M165.48,188.45c.4.13,4.18,5.99,4.85,6.89.1.13-.01.44.43.3s4.35-6.32,4.92-7.19h5.04l-7.62,10.66,8.1,11.87h-5.28c-1.56-2.35-3.28-5.39-5.08-7.51-.16-.19-.22-.48-.56-.4-.86.84-5.04,7.91-5.52,7.91h-4.92l8.13-11.42-7.65-11.11c1.29.25,4.08-.34,5.16,0Z"/>
  <path class="cls-1" d="M181.32,153.46c.4.13,4.18,5.99,4.85,6.89.1.13-.01.44.43.3s4.32-6.33,4.92-7.19h5.04l-7.62,10.66,8.1,11.87h-5.28c-1.57-2.38-3.27-5.35-5.08-7.51-.16-.19-.23-.48-.56-.4-.86.84-5.04,7.91-5.52,7.91h-4.92l8.12-11.43-7.64-11.1c1.29.25,4.08-.34,5.16,0Z"/>
  <path class="cls-1" d="M263.52,147.71v5.75h4.32v3.36h-4.32v14.26c0,.1.53,1.05.78,1.16.92.42,2.53.39,3.54.4v3.36h-5.16c-.49,0-2.06-.65-2.44-1.04-.31-.32-1.04-2.09-1.04-2.44v-15.7h-3.36v-3.36h3.36v-5.75h4.32Z"/>
  <path class="cls-1" d="M246.96,153.46v3.59l1.43-1.8c1.59-1.6,3.83-1.93,6.01-1.79v4.55c-2.37-.29-5.63-.34-6.77,2.23-.11.24-.67,2.09-.67,2.2v13.54h-4.32v-22.53h4.32Z"/>
  <path class="cls-1" d="M63.84,188.45v3.59l1.43-1.8c1.59-1.6,3.83-1.93,6.01-1.79v4.55c-2.46-.28-5.55-.41-6.76,2.23-.17.36-.68,1.92-.68,2.2v13.54h-4.32v-22.53h4.32Z"/>
  <rect class="cls-1" x="195.36" y="162.56" width="18.24" height="4.07"/>
  <polygon class="cls-1" points="102.96 111.04 97.56 115.83 94.08 115.83 97.44 111.04 102.96 111.04"/>
  <path class="cls-1" d="M280.32.32c9.47.57,19.24,4.33,24.04,13.02,3.34,6.05,3.87,14.94,1.4,21.38-1.97,5.15-5.83,8.81-10.08,12.09,8.94,3.65,16.76,11.94,17.52,21.93,1.45,19.22-9.04,31.23-28.43,31.52h-44.05V10.98c0-5.62-4.39-7.88-9.27-8.48-.4-.05-1.71.03-1.77-.03-.09-.09.06-1.77,0-2.16,16.62.75,34.12-1,50.64,0ZM250.08,91.75c0,.2.58.42.83.37,18.2-2.06,52.99,8.51,52.8-20.26-.1-13.89-10.73-19.52-23.27-20.49h-30.36s0,40.38,0,40.38ZM280.93,43.23c18.43.91,23.3-26.64,7.13-33.03-10.12-4-26.21-.55-37.16-1.75-.25-.05-.83.17-.83.37v34.39h30.85Z"/>
  <path class="cls-1" d="M363.6.32l35.31,89.96c2.35,5.03,4.99,7.98,11.01,7.82v2.16h-29.76c.06-.38-.09-2.07,0-2.16.44-.44,7.03.68,8.17-2.74.7-2.1-.09-4.94-.67-7.02-1.42-5.13-4-10.15-5.62-15.24l-.35-.37-47.61.08-10.56,27.44h-10.32l35.64-91.07c2.05-6.5-5.8-6.68-10.2-6.71V.32h24.96ZM357.84,10.14l-20.64,54.4h41.52l-20.88-54.4Z"/>
  <path class="cls-1" d="M99.96,145.79c5.78.51,9.64,3.96,7.92,10.07-.52,1.85-1.53,2.71-2.76,4.07,6.18,2.55,5.63,12.06-.15,14.83-.91.44-3.6,1.23-4.53,1.23h-14.04v-30.2c4.38.28,9.23-.38,13.56,0ZM99.48,172.15c.22,0,2.12-.54,2.45-.67,2.89-1.18,3.61-5.98,1.4-7.96-.63-.56-3.05-1.43-3.84-1.43h-8.28v10.07h8.28ZM99.48,158.49c.29,0,1.86-.69,2.21-.91,2.62-1.67,2.31-6.11-.65-7.35-.31-.13-1.84-.6-2.04-.6h-7.8v8.87h8.28Z"/>
  <path class="cls-1" d="M11.04,210.97v-30.2h13.56c.6,0,2.86.56,3.53.78,6.03,2.01,6.19,9.6,1.63,13.24,6.08,2.75,5.7,12.14-.15,14.95-.91.44-3.6,1.23-4.53,1.23h-14.04ZM24.12,207.14c.22,0,2.11-.54,2.45-.67,2.85-1.17,3.61-5.98,1.4-7.96-.63-.56-3.05-1.43-3.84-1.43h-8.28v10.07h8.28ZM24.12,193.48c.29,0,1.86-.69,2.21-.91,2.62-1.67,2.31-6.11-.65-7.35-.31-.13-1.84-.6-2.04-.6h-7.8v8.87h8.28Z"/>
  <path class="cls-1" d="M213.84,175.98l11.06-30.17,5.15-.04,11.63,30.21h-5.28l-2.19-6.44h-13.02c-.21.04-.26.21-.35.37-.77,1.25-1.39,4.55-1.96,6.07h-5.04ZM232.56,165.44l-5.16-14.14-4.92,14.14h10.08Z"/>
  <path class="cls-1" d="M91.92,180.78v30.2h-4.32v-2.88c-4.31,5.35-12.19,4.14-15.25-1.91-1.95-3.86-1.85-10.03.41-13.75,3.28-5.41,10.88-6.16,14.84-1.12v-10.54h4.32ZM81.95,207.86c8.19-.47,7.77-17.37-1.13-16.24-7.35.94-7,16.71,1.13,16.24Z"/>
  <path class="cls-1" d="M30,145.79v30.2h-4.32v-2.88c-3.43,4.45-10.15,4.49-13.8.24s-3.83-12.88,0-17.26,10.32-4.22,13.8.24v-10.54h4.32ZM20.03,172.87c8.22-.47,7.76-17.37-1.13-16.24-7.37.94-6.98,16.71,1.13,16.24Z"/>
  <path class="cls-1" d="M132.48,166.16h-17.04c.11,5,4.91,7.94,9.53,6.04,1.27-.52,2.64-2.68,2.83-2.68h4.2c-3.43,10.75-19.63,8.73-21.06-2.58-2.29-18.19,23.04-18.81,21.54-.78ZM115.44,162.8h12.48c-.48-8.46-11.86-8.3-12.48,0Z"/>
  <path class="cls-1" d="M130.08,131.41h-17.04c.11,5,4.91,7.94,9.53,6.04,1.27-.52,2.64-2.68,2.83-2.68h4.2c-1.44,5.9-7.92,8-13.39,6.54-10.54-2.81-10.31-20.1.19-22.72,8.76-2.18,14.25,4.55,13.68,12.82ZM113.04,128.05h12.48c-.46-8.46-11.93-8.31-12.48,0Z"/>
  <path class="cls-1" d="M54,166.16h-17.04c.11,5,4.91,7.94,9.53,6.04,1.27-.52,2.64-2.68,2.83-2.68h4.2c-3.2,10.16-18.4,9.1-20.76-1.44-4.18-18.63,22.72-20.86,21.24-1.92ZM36.96,162.8h12.48c-.44-8.45-11.93-8.3-12.48,0Z"/>
  <path class="cls-1" d="M106.8,131.41h-17.04c.1,4.99,4.94,7.92,9.53,6.04,1.27-.52,2.64-2.68,2.83-2.68h4.2c-3.2,10.16-18.4,9.1-20.76-1.44-4.18-18.63,22.72-20.86,21.24-1.92ZM89.76,128.05h12.48c-.46-8.46-11.93-8.31-12.48,0Z"/>
  <path class="cls-1" d="M116.4,201.15h-17.04c.11,5,4.91,7.94,9.53,6.04,1.27-.52,2.64-2.68,2.83-2.68h4.2c-3.2,10.16-18.4,9.1-20.76-1.44-4.17-18.62,22.7-20.87,21.24-1.92ZM99.36,197.79h12.48c-.45-8.43-11.94-8.31-12.48,0Z"/>
  <path class="cls-1" d="M137.76,210.97h-4.32l-.24-2.63-1.74,1.49c-4.38,3.17-13.73,1.97-14.1-4.5-.4-7.09,10.38-7.7,15.36-8.26,1.09-6.87-9.25-8.1-9.84-1.43h-4.32c.25-9.7,17.29-10.77,18.45-.81.6,5.16-.76,10.99.75,16.15ZM122.21,205.28c.56,3.84,6.93,3.29,9.16,1.11,1.59-1.56,1.65-4.12,1.58-6.2-2.88.59-11.4.59-10.75,5.09Z"/>
  <path class="cls-1" d="M154.08,175.98h-4.32l-.24-2.63-1.74,1.49c-4.38,3.17-13.73,1.97-14.1-4.5-.4-7.08,10.38-7.72,15.36-8.26,1.09-6.87-9.25-8.1-9.84-1.43h-4.32c.25-9.7,17.29-10.77,18.45-.81.6,5.16-.76,10.99.75,16.15ZM138.49,169.41c-.66,4.76,8.32,4.98,10.26.41.62-1.46.56-3.07.53-4.62-2.7.58-10.29.61-10.79,4.21Z"/>
  <path class="cls-1" d="M44.83,188.03c16.6-2,16.89,24.84.42,23.42-12.93-1.12-13.09-21.89-.42-23.42ZM46.43,207.87c8.92-.12,8.31-17.31-.64-16.24-8.11.96-7.37,16.35.64,16.24Z"/>
</svg>