<svg width="3120" height="2400" viewBox="0 0 3120 2400" fill="none" xmlns="http://www.w3.org/2000/svg">
    <path d="M574.136 1412.21H606.144C606.144 1418.35 609.945 1433.03 625.148 1442.59C640.352 1452.16 773.517 1479.46 838.199 1491.91V1577.09L1269.8 1732.51C1487.69 1793.28 1999.88 1897.99 2305.55 1830.64C2611.22 1763.29 2689.31 1620.92 2690.14 1558.16H2733.65C2719.25 1697.64 2704.98 1854.05 2699.64 1914.82L2661.63 1933.75C2111.9 2203.54 1105.93 1985.06 671.66 1842.1L574.136 1850.07L427.602 1880.95L458.609 1694.65C518.623 1677.91 551.298 1625.91 560.133 1602L574.136 1412.21Z"
          fill="#D9D9D9"/>
</svg>
