<svg width="3120" height="2400" viewBox="0 0 3120 2400" fill="none" xmlns="http://www.w3.org/2000/svg">
    <path d="M606.143 1412.71C606.143 1325.86 648.252 1165.53 816.692 1218.93C836.363 1229.06 871.304 1269.54 853.7 1350.44C877.039 1385.14 941.12 1454.15 1010.74 1452.56L1840.43 1488.92C1939.21 1483.58 2094.33 1479.11 2248.44 1486.53L2247.53 1451.56L2206.52 526.527L2221.03 395.518L2320 1490.9C2471.07 1502.18 2612.38 1526.83 2688.13 1575.6C2673.46 1663.1 2527.79 1841.5 2062.48 1855.05C1597.17 1868.6 1066.75 1674.72 839.197 1579.58L838.197 1491.91L667.157 1456.04C632.649 1448.07 608.143 1440.1 606.143 1412.71Z"
          fill="#D9D9D9"/>
</svg>
