<svg width="1885" height="2290" viewBox="0 0 1885 2290" fill="none" xmlns="http://www.w3.org/2000/svg">
    <path d="M1694.55 1337.33C1685.39 1334.5 1667.76 1317.95 1670.56 1274.39C1671.81 1254.85 1667.28 1223.59 1660.7 1190.96L1621.57 1153.99C1632.77 1126.02 1616.91 1117.69 1607.57 1117.02C1595.74 1116.53 1573.98 1123.22 1581.58 1153.99C1575.92 1158.16 1563.49 1168.58 1559.09 1176.97L1500.6 1246.91L1497.1 1231.92V1144.5H1527.6L1569.58 1068.07L1634.07 1083.55C1677.39 1096.38 1763.73 1132.11 1762.53 1172.48C1761.33 1212.84 1802.02 1229.26 1822.52 1232.42C1829.32 1245.61 1830.35 1271.89 1830.02 1283.38C1830.02 1328.34 1743.37 1335.5 1694.55 1337.33Z M1702.55 1495.19L1633.07 1359.31L1694.55 1378.3C1734.14 1422.66 1801.36 1461.72 1830.02 1475.71C1792.83 1497.69 1729.54 1497.86 1702.55 1495.19Z M1483.11 1295.37C1490.31 1289.77 1529.43 1250.74 1548.09 1231.92L1559.09 1324.34L1483.11 1295.37Z"
          fill="#fff"/>
</svg>
