<svg width="1885" height="2290" viewBox="0 0 1885 2290" fill="none" xmlns="http://www.w3.org/2000/svg">
    <path d="M598.842 1227.43C612.438 1152.69 655.493 1111.36 675.322 1100.04C717.81 1122.52 814.185 1169.08 859.773 1175.47C905.361 1181.87 916.758 1166.48 916.758 1157.99C921.956 1093.25 973.576 1060.74 998.736 1052.58C1010.23 1091.55 1024.23 1160.99 1024.23 1191.46C1010.23 1201.95 953.081 1186.13 927.755 1178.47C901.762 1181.67 910.926 1194.12 918.757 1199.95C957.547 1214.34 1034.56 1221.27 1068.22 1222.93C1083.01 1212.54 1084.38 1168.98 1083.21 1148.5H1122.7C1091.91 1176.87 1096.54 1203.62 1102.71 1213.44C1134.3 1239.42 1160.53 1220.6 1169.69 1207.95C1154.49 1239.52 1163.36 1272.72 1169.69 1285.38L1293.16 1429.75L1321.15 1424.26V1342.83L1376.14 1294.87L1386.63 1395.78C1441.02 1436.95 1500.44 1456.73 1524.1 1460.23C1658.06 1515.78 1784.53 1494.03 1831.02 1476.21V1503.19L1885 1546.15V1714C1833.81 1821.11 1434.79 1633.07 1241.67 1525.67C1240.47 1488.1 1259.83 1466.39 1269.66 1460.23L1120.2 1303.86C829.081 1453.73 651.328 1315.35 598.842 1227.43Z"
          fill="#fff"/>
</svg>
