<svg width="1885" height="2290" viewBox="0 0 1885 2290" fill="none" xmlns="http://www.w3.org/2000/svg">
    <path d="M518.363 548.521C573.682 523.043 704.914 482.578 787.292 524.542C799.289 537.197 818.284 581.692 798.289 658.425C817.484 628.451 838.945 570.002 847.276 544.524C850.942 545.357 859.473 545.424 864.272 539.029C896.596 549.686 964.645 577.895 978.241 605.471C973.243 653.263 969.244 762.234 993.237 815.787C1017.23 869.341 1078.21 900.047 1105.71 908.706C1117.54 911.204 1145.2 916.1 1161.19 915.7C1183.69 924.526 1226.38 968.154 1217.18 1072.06C1217.18 1093.88 1208.58 1150.2 1174.19 1200.95C1165.86 1216.77 1139.9 1241.52 1102.71 1213.94C1096.54 1204.11 1091.91 1177.27 1122.7 1148.5H1083.21C1084.21 1169.98 1082.71 1214.84 1068.72 1222.43C1054.72 1230.03 964.245 1211.28 920.757 1200.95C912.092 1195.62 901.462 1183.47 928.255 1177.47C955.914 1185.63 1013.43 1200.15 1022.23 1192.96C1031.03 1185.76 1010.23 1096.38 998.736 1052.58C973.576 1061.74 922.056 1094.94 917.258 1154.49C912.459 1214.04 753.301 1143.33 674.322 1100.54C679.987 1094.21 696.216 1081.46 715.811 1081.06C716.977 1073.23 718.61 1054.88 715.811 1044.09L845.277 1109.53L855.274 1081.06L775.795 1017.11C826.448 999.793 907.16 940.279 824.782 840.766C804.454 829.276 748.702 805.996 688.318 804.797C675.322 797.304 677.321 804.797 598.842 613.464C591.677 600.975 565.551 570.501 518.363 548.521Z"
          fill="#fff"/>
</svg>
