<svg width="1885" height="2290" viewBox="0 0 1885 2290" fill="none" xmlns="http://www.w3.org/2000/svg">
    <path d="M402.893 961.661L373.401 905.71H444.383C466.377 921.296 609.506 975.482 678.321 1000.63C699.515 1002.22 713.478 1030.27 717.81 1044.09L844.277 1109.03L856.274 1081.56L776.795 1015.61C814.285 1006.95 882.667 970.353 856.274 893.22C823.282 796.804 722.309 815.288 708.313 807.296C694.317 799.303 679.321 834.771 629.334 678.407C589.344 553.316 505.367 537.531 465.377 543.026C406.893 551.063 364.237 608.302 342.91 643.938L293.923 678.407L338.911 710.379V807.296C324.115 795.706 306.752 802.466 299.92 807.296C259.431 854.255 355.905 973.65 364.403 976.648C371.201 979.046 392.896 967.655 402.893 961.661Z M999.736 412.14C973.343 439.316 953.081 429.458 946.25 421.132C907.26 440.782 833.48 484.777 850.275 503.56C867.071 522.344 866.271 535.033 863.772 539.029L865.271 539.529C934.253 567.005 978.759 593.482 977.741 607.47C969.744 717.374 980.407 783.483 986.739 802.799C1029.93 898.316 1120.37 917.532 1160.19 915.201C1180.69 888.224 1179.69 801.3 1142.7 748.846C1113.11 706.883 1109.37 627.785 1111.21 593.482C1163.86 588.653 1275.86 560.462 1273.66 511.054C1269.66 421.132 1215.51 352.193 1184.19 306.732L1152.2 333.709C1160.69 351.693 1143.2 410.142 1130.7 440.615L1080.21 424.13C1084.71 368.678 1062.72 335.208 1058.72 329.713C1054.72 324.218 1050.22 293.245 1016.23 298.24C989.038 302.237 969.244 334.542 962.745 350.195C960.246 357.855 961.746 370.177 987.739 358.187C1013.73 346.198 1023.56 358.52 1025.23 366.18C1027.73 370.177 1026.13 384.964 999.736 412.14Z"
          fill="#fff"/>
</svg>
