<svg width="1886" height="2290" viewBox="0 0 1886 2290" fill="none" xmlns="http://www.w3.org/2000/svg">
    <path d="M1143.2 749.346C1114.4 696.991 1110.54 622.956 1112.2 592.483C1155.03 587.487 1246.47 566.505 1269.66 522.544C1292.86 478.582 1223.01 360.352 1185.19 306.732L1153.19 333.709C1161.99 352.092 1142.53 412.64 1131.7 440.615L1080.21 423.63C1086.71 381.667 1070.22 343.7 1047.22 310.729C1028.83 284.352 998.902 303.735 986.239 316.723C969.243 336.872 945.449 373.474 986.239 358.687C1027.03 343.9 1028.56 367.179 1024.23 380.668C984.239 443.413 956.913 432.789 948.249 419.634C859.072 465.593 847.109 496.067 852.274 505.558C879.467 539.928 860.605 546.19 847.775 545.024C846.975 568.204 815.117 630.949 799.288 659.424C818.883 587.487 800.788 539.196 789.291 524.042C731.306 492.07 581.513 530.87 523.361 548.021C385.398 542.526 354.406 633.946 339.91 646.435C328.313 656.427 304.753 671.58 294.422 677.908L339.91 710.879V806.296C305.519 795.106 295.255 810.958 294.422 820.284C285.224 879.432 336.244 948.505 362.904 975.648L402.893 964.158L374.401 906.209H446.882C501.034 930.854 621.935 983.541 672.322 997.129C722.708 1010.72 722.642 1058.74 716.31 1081.06C648.728 1094.64 610.172 1184.63 599.341 1227.93C410.991 1159.59 121.301 1166.15 0 1177.97V0H1885V1544.15L1831.01 1503.69V1475.71C1806.22 1475.71 1730.71 1412.77 1696.05 1381.29V1336.83C1733.04 1334.5 1810.32 1324.84 1823.52 1304.86C1836.71 1284.88 1829.02 1247.91 1823.52 1231.92C1803.69 1229.09 1764.03 1214.64 1764.03 1179.47C1764.03 1144.3 1695.05 1104.87 1660.56 1089.55L1571.08 1068.07L1529.09 1144.5H1498.1V1231.92L1427.62 1336.83H1382.63L1376.14 1298.37L1322.15 1346.82V1426.75H1294.16L1176.69 1294.37C1165.52 1279.05 1149.89 1238.22 1176.69 1197.45C1203.48 1156.69 1211.85 1119.19 1212.68 1105.53C1232.67 974.449 1186.35 925.025 1160.69 916.699C1178.19 856.752 1179.19 814.788 1143.2 749.346Z"
          fill="#fff"/>
</svg>
