<svg width="1885" height="2290" viewBox="0 0 1885 2290" fill="none" xmlns="http://www.w3.org/2000/svg">
    <path d="M526.361 1969.78C481.573 2015.34 437.718 2201.24 421.389 2288.5L1584.58 2288.5L1584.08 2257.53C1501.7 2265.92 1425.12 2164.78 1397.13 2113.15C1352.74 2105.16 1341.98 2034.56 1342.14 2000.25C1319.75 1983.07 1294.49 1948.13 1284.66 1932.81H1214.18C1105.01 1923.22 1030.06 1830.24 1006.23 1784.94H972.243C949.082 1814.58 895.663 1879.66 867.27 1902.84C838.878 1926.02 811.452 1912.5 801.288 1902.84L658.826 1906.83V1958.29C633.332 1943.14 571.149 1924.22 526.361 1969.78Z"
          fill="#fff"/>
</svg>
