<svg width="1885" height="2290" viewBox="0 0 1885 2290" fill="none" xmlns="http://www.w3.org/2000/svg">
    <path d="M299.92 1887.35C207.945 2008.05 61.9836 2109.82 0.499867 2145.63H0V2288.5H420.888C403.293 2271.72 388.564 2141.96 383.398 2079.18C329.813 2033.62 375.4 2022.9 404.893 2023.23C396.228 2005.42 387.597 1944.3 422.388 1842.39C457.179 1740.48 604.506 1658.05 673.821 1629.58L849.775 1617.59C888.264 1575.62 1098.21 1500.19 1076.21 1503.19C1058.62 1505.59 715.644 1529.5 546.355 1541.15L450.381 1575.62L370.402 1704.51C362.737 1755.97 346.608 1861.07 343.409 1869.87C340.21 1878.66 313.084 1885.19 299.92 1887.35Z"
          fill="#fff"/>
</svg>
