<svg width="1885" height="2290" viewBox="0 0 1885 2290" fill="none" xmlns="http://www.w3.org/2000/svg">
    <path d="M1143.2 1476.71C1137.6 1489.9 1097.21 1500.52 1077.71 1504.19C979.741 1526.17 890.597 1584.95 858.272 1611.59L674.49 1627.08C414.558 1686.63 382.234 1915.66 398.563 2022.73C324.652 2021.53 360.767 2061.2 384.898 2081.18C379.3 2191.49 407.226 2265.69 421.888 2289C479.873 1975.27 549.355 1903.34 658.826 1958.29L660.325 1907.83L803.787 1903.34C855.773 1956.09 937.752 1846.39 972.242 1784.94H1005.73C1084.11 1927.22 1217.01 1943.14 1273.66 1933.31C1280.86 1951.3 1322.32 1985.43 1342.14 2000.25C1353.95 2141.97 1382.88 2106.72 1397.13 2113.15C1491.1 2278.51 1584.08 2257.53 1584.08 2257.53L1584.58 2288.5H1883.5V1712C1733.54 1751.97 1328.31 1571.63 1143.2 1476.71Z"
          fill="#fff"/>
</svg>
