<svg fill="none" height="75vh" id="result" viewBox="0 0 1200 927" width="80vw" xmlns="http://www.w3.org/2000/svg" xmlns:xlink="http://www.w3.org/1999/xlink">
    <path d="M1 0V1612.46L2728.65 1611.46H3120.24L3120.74 0H1Z" fill="#6495ED"></path>

    <path d="M574.136 1412.21H606.144C606.144 1418.35 609.945 1433.03 625.148 1442.59C640.352 1452.16 773.517 1479.46 838.199 1491.91V1577.09L1269.8 1732.51C1487.69 1793.28 1999.88 1897.99 2305.55 1830.64C2611.22 1763.29 2689.31 1620.92 2690.14 1558.16H2733.65C2719.25 1697.64 2704.98 1854.05 2699.64 1914.82L2661.63 1933.75C2111.9 2203.54 1105.93 1985.06 671.66 1842.1L574.136 1850.07L427.602 1880.95L458.609 1694.65C518.623 1677.91 551.298 1625.91 560.133 1602L574.136 1412.21Z" fill="#DC143C"></path>

    <path d="M3120.75 2399.01L3120.75 1611.95L2727.65 1611.96L2699.65 1915.82C2623.63 1929.27 2358.57 2118.78 1651.4 2042.35C944.225 1965.92 718.671 1840.11 675.662 1840.11L574.138 1849.57C527.127 1859.37 432.004 1879.46 427.603 1881.45L459.111 1694.15C485.45 1686.85 542.531 1658.19 560.135 1602L1.49956 1612.96L2.00024 2399.01L3120.75 2399.01Z" fill="#FF00FF"></path>

    <path d="M606.143 1412.71C606.143 1325.86 648.252 1165.53 816.692 1218.93C836.363 1229.06 871.304 1269.54 853.7 1350.44C877.039 1385.14 941.12 1454.15 1010.74 1452.56L1840.43 1488.92C1939.21 1483.58 2094.33 1479.11 2248.44 1486.53L2247.53 1451.56L2206.52 526.527L2221.03 395.518L2320 1490.9C2471.07 1502.18 2612.38 1526.83 2688.13 1575.6C2673.46 1663.1 2527.79 1841.5 2062.48 1855.05C1597.17 1868.6 1066.75 1674.72 839.197 1579.58L838.197 1491.91L667.157 1456.04C632.649 1448.07 608.143 1440.1 606.143 1412.71Z" fill="#DC143C"></path>

    <path d="M1030.24 1379.33C1160.28 1082.84 1240.46 429.224 1264.3 139.477C1475.31 165.165 1777.21 296.842 1999.37 409.435C2006.79 406.264 2013.3 403.374 2018.48 400.997C2042.82 379.245 2104.2 340.025 2155.01 357.161L2218.53 406.476L2209.52 508.593C2196.57 457.149 2148.28 374.784 2056.44 438.839C2113.59 468.766 2163.49 496.385 2202.52 519.054L2253.53 1686.68C1666.6 1349.94 1193.45 1341.47 1030.24 1379.33Z" fill="#DC143C"></path>
</svg>