<svg viewbox="0 0 1885 2290" width="1885" height="2290" xmlns="http://www.w3.org/2000/svg" xmlns:xlink="http://www.w3.org/1999/xlink" blur="1px">
    <path d="M1694.55 1337.33C1685.39 1334.5 1667.76 1317.95 1670.56 1274.39C1671.81 1254.85 1667.28 1223.59 1660.7 1190.96L1621.57 1153.99C1632.77 1126.02 1616.91 1117.69 1607.57 1117.02C1595.74 1116.53 1573.98 1123.22 1581.58 1153.99C1575.92 1158.16 1563.49 1168.58 1559.09 1176.97L1500.6 1246.91L1497.1 1231.92V1144.5H1527.6L1569.58 1068.07L1634.07 1083.55C1677.39 1096.38 1763.73 1132.11 1762.53 1172.48C1761.33 1212.84 1802.02 1229.26 1822.52 1232.42C1829.32 1245.61 1830.35 1271.89 1830.02 1283.38C1830.02 1328.34 1743.37 1335.5 1694.55 1337.33Z M1702.55 1495.19L1633.07 1359.31L1694.55 1378.3C1734.14 1422.66 1801.36 1461.72 1830.02 1475.71C1792.83 1497.69 1729.54 1497.86 1702.55 1495.19Z M1483.11 1295.37C1490.31 1289.77 1529.43 1250.74 1548.09 1231.92L1559.09 1324.34L1483.11 1295.37Z" fill="#fff"></path>

    <path d="M598.842 1227.43C612.438 1152.69 655.493 1111.36 675.322 1100.04C717.81 1122.52 814.185 1169.08 859.773 1175.47C905.361 1181.87 916.758 1166.48 916.758 1157.99C921.956 1093.25 973.576 1060.74 998.736 1052.58C1010.23 1091.55 1024.23 1160.99 1024.23 1191.46C1010.23 1201.95 953.081 1186.13 927.755 1178.47C901.762 1181.67 910.926 1194.12 918.757 1199.95C957.547 1214.34 1034.56 1221.27 1068.22 1222.93C1083.01 1212.54 1084.38 1168.98 1083.21 1148.5H1122.7C1091.91 1176.87 1096.54 1203.62 1102.71 1213.44C1134.3 1239.42 1160.53 1220.6 1169.69 1207.95C1154.49 1239.52 1163.36 1272.72 1169.69 1285.38L1293.16 1429.75L1321.15 1424.26V1342.83L1376.14 1294.87L1386.63 1395.78C1441.02 1436.95 1500.44 1456.73 1524.1 1460.23C1658.06 1515.78 1784.53 1494.03 1831.02 1476.21V1503.19L1885 1546.15V1714C1833.81 1821.11 1434.79 1633.07 1241.67 1525.67C1240.47 1488.1 1259.83 1466.39 1269.66 1460.23L1120.2 1303.86C829.081 1453.73 651.328 1315.35 598.842 1227.43Z" fill="#fff"></path>

    <path d="M518.363 548.521C573.682 523.043 704.914 482.578 787.292 524.542C799.289 537.197 818.284 581.692 798.289 658.425C817.484 628.451 838.945 570.002 847.276 544.524C850.942 545.357 859.473 545.424 864.272 539.029C896.596 549.686 964.645 577.895 978.241 605.471C973.243 653.263 969.244 762.234 993.237 815.787C1017.23 869.341 1078.21 900.047 1105.71 908.706C1117.54 911.204 1145.2 916.1 1161.19 915.7C1183.69 924.526 1226.38 968.154 1217.18 1072.06C1217.18 1093.88 1208.58 1150.2 1174.19 1200.95C1165.86 1216.77 1139.9 1241.52 1102.71 1213.94C1096.54 1204.11 1091.91 1177.27 1122.7 1148.5H1083.21C1084.21 1169.98 1082.71 1214.84 1068.72 1222.43C1054.72 1230.03 964.245 1211.28 920.757 1200.95C912.092 1195.62 901.462 1183.47 928.255 1177.47C955.914 1185.63 1013.43 1200.15 1022.23 1192.96C1031.03 1185.76 1010.23 1096.38 998.736 1052.58C973.576 1061.74 922.056 1094.94 917.258 1154.49C912.459 1214.04 753.301 1143.33 674.322 1100.54C679.987 1094.21 696.216 1081.46 715.811 1081.06C716.977 1073.23 718.61 1054.88 715.811 1044.09L845.277 1109.53L855.274 1081.06L775.795 1017.11C826.448 999.793 907.16 940.279 824.782 840.766C804.454 829.276 748.702 805.996 688.318 804.797C675.322 797.304 677.321 804.797 598.842 613.464C591.677 600.975 565.551 570.501 518.363 548.521Z" fill="#fff"></path>

    <path d="M402.893 961.661L373.401 905.71H444.383C466.377 921.296 609.506 975.482 678.321 1000.63C699.515 1002.22 713.478 1030.27 717.81 1044.09L844.277 1109.03L856.274 1081.56L776.795 1015.61C814.285 1006.95 882.667 970.353 856.274 893.22C823.282 796.804 722.309 815.288 708.313 807.296C694.317 799.303 679.321 834.771 629.334 678.407C589.344 553.316 505.367 537.531 465.377 543.026C406.893 551.063 364.237 608.302 342.91 643.938L293.923 678.407L338.911 710.379V807.296C324.115 795.706 306.752 802.466 299.92 807.296C259.431 854.255 355.905 973.65 364.403 976.648C371.201 979.046 392.896 967.655 402.893 961.661Z M999.736 412.14C973.343 439.316 953.081 429.458 946.25 421.132C907.26 440.782 833.48 484.777 850.275 503.56C867.071 522.344 866.271 535.033 863.772 539.029L865.271 539.529C934.253 567.005 978.759 593.482 977.741 607.47C969.744 717.374 980.407 783.483 986.739 802.799C1029.93 898.316 1120.37 917.532 1160.19 915.201C1180.69 888.224 1179.69 801.3 1142.7 748.846C1113.11 706.883 1109.37 627.785 1111.21 593.482C1163.86 588.653 1275.86 560.462 1273.66 511.054C1269.66 421.132 1215.51 352.193 1184.19 306.732L1152.2 333.709C1160.69 351.693 1143.2 410.142 1130.7 440.615L1080.21 424.13C1084.71 368.678 1062.72 335.208 1058.72 329.713C1054.72 324.218 1050.22 293.245 1016.23 298.24C989.038 302.237 969.244 334.542 962.745 350.195C960.246 357.855 961.746 370.177 987.739 358.187C1013.73 346.198 1023.56 358.52 1025.23 366.18C1027.73 370.177 1026.13 384.964 999.736 412.14Z" fill="#fff"></path>

    <path d="M1143.2 749.346C1114.4 696.991 1110.54 622.956 1112.2 592.483C1155.03 587.487 1246.47 566.505 1269.66 522.544C1292.86 478.582 1223.01 360.352 1185.19 306.732L1153.19 333.709C1161.99 352.092 1142.53 412.64 1131.7 440.615L1080.21 423.63C1086.71 381.667 1070.22 343.7 1047.22 310.729C1028.83 284.352 998.902 303.735 986.239 316.723C969.243 336.872 945.449 373.474 986.239 358.687C1027.03 343.9 1028.56 367.179 1024.23 380.668C984.239 443.413 956.913 432.789 948.249 419.634C859.072 465.593 847.109 496.067 852.274 505.558C879.467 539.928 860.605 546.19 847.775 545.024C846.975 568.204 815.117 630.949 799.288 659.424C818.883 587.487 800.788 539.196 789.291 524.042C731.306 492.07 581.513 530.87 523.361 548.021C385.398 542.526 354.406 633.946 339.91 646.435C328.313 656.427 304.753 671.58 294.422 677.908L339.91 710.879V806.296C305.519 795.106 295.255 810.958 294.422 820.284C285.224 879.432 336.244 948.505 362.904 975.648L402.893 964.158L374.401 906.209H446.882C501.034 930.854 621.935 983.541 672.322 997.129C722.708 1010.72 722.642 1058.74 716.31 1081.06C648.728 1094.64 610.172 1184.63 599.341 1227.93C410.991 1159.59 121.301 1166.15 0 1177.97V0H1885V1544.15L1831.01 1503.69V1475.71C1806.22 1475.71 1730.71 1412.77 1696.05 1381.29V1336.83C1733.04 1334.5 1810.32 1324.84 1823.52 1304.86C1836.71 1284.88 1829.02 1247.91 1823.52 1231.92C1803.69 1229.09 1764.03 1214.64 1764.03 1179.47C1764.03 1144.3 1695.05 1104.87 1660.56 1089.55L1571.08 1068.07L1529.09 1144.5H1498.1V1231.92L1427.62 1336.83H1382.63L1376.14 1298.37L1322.15 1346.82V1426.75H1294.16L1176.69 1294.37C1165.52 1279.05 1149.89 1238.22 1176.69 1197.45C1203.48 1156.69 1211.85 1119.19 1212.68 1105.53C1232.67 974.449 1186.35 925.025 1160.69 916.699C1178.19 856.752 1179.19 814.788 1143.2 749.346Z" fill="#6495ED"></path>

    <path d="M0 1712.5V1177.97C272.928 1120.52 597.342 1221.93 598.341 1227.93C599.341 1233.92 696.315 1349.82 836.778 1366.81C949.148 1380.39 1072.88 1329.17 1120.7 1301.86L1270.16 1459.23C1250.97 1468.42 1242.17 1507.02 1240.17 1525.17L1143.7 1477.21C1129.7 1494.39 1098.54 1501.69 1084.71 1503.19L547.355 1541.15L450.381 1575.62C408.792 1639.97 325.414 1635.07 288.923 1624.58C246.435 1643.06 111.97 1691.52 0 1712.5Z" fill="#6495ED"></path>

    <path d="M1427.12 1336.33H1380.63L1387.13 1396.78C1491.9 1475.91 1641.06 1495.69 1702.55 1495.69L1633.07 1359.31L1694.55 1378.3L1695.05 1378.95V1337.33C1675.85 1324.54 1671.39 1309.02 1671.56 1302.86C1671.56 1244.91 1664.22 1204.12 1660.56 1190.96L1622.57 1153.99C1627.57 1141.67 1630.97 1117.02 1604.57 1117.02C1578.18 1117.02 1578.25 1141.67 1581.58 1153.99C1569.98 1159.19 1522.76 1218.1 1500.6 1246.91L1497.1 1231.92L1427.12 1336.33Z" fill="#fff"></path>

    <path d="M0 2149.12L1.00084 1711.83C19.8167 1718.27 200.336 1656.54 288.243 1624.88C379.12 1644.98 434.533 1601.08 450.88 1576.62L371.313 1707.81L343.79 1872.17C335.383 1882.63 311.263 1887.92 300.253 1889.26L299.753 1889.76C198.167 2021.96 74.5629 2100.87 0 2149.12Z" fill="#6495ED"></path>

    <path d="M526.361 1969.78C481.573 2015.34 437.718 2201.24 421.389 2288.5L1584.58 2288.5L1584.08 2257.53C1501.7 2265.92 1425.12 2164.78 1397.13 2113.15C1352.74 2105.16 1341.98 2034.56 1342.14 2000.25C1319.75 1983.07 1294.49 1948.13 1284.66 1932.81H1214.18C1105.01 1923.22 1030.06 1830.24 1006.23 1784.94H972.243C949.082 1814.58 895.663 1879.66 867.27 1902.84C838.878 1926.02 811.452 1912.5 801.288 1902.84L658.826 1906.83V1958.29C633.332 1943.14 571.149 1924.22 526.361 1969.78Z" fill="#fff"></path>

    <path d="M299.92 1887.35C207.945 2008.05 61.9836 2109.82 0.499867 2145.63H0V2288.5H420.888C403.293 2271.72 388.564 2141.96 383.398 2079.18C329.813 2033.62 375.4 2022.9 404.893 2023.23C396.228 2005.42 387.597 1944.3 422.388 1842.39C457.179 1740.48 604.506 1658.05 673.821 1629.58L849.775 1617.59C888.264 1575.62 1098.21 1500.19 1076.21 1503.19C1058.62 1505.59 715.644 1529.5 546.355 1541.15L450.381 1575.62L370.402 1704.51C362.737 1755.97 346.608 1861.07 343.409 1869.87C340.21 1878.66 313.084 1885.19 299.92 1887.35Z" fill="#fff"></path>

    <path d="M1143.2 1476.71C1137.6 1489.9 1097.21 1500.52 1077.71 1504.19C979.741 1526.17 890.597 1584.95 858.272 1611.59L674.49 1627.08C414.558 1686.63 382.234 1915.66 398.563 2022.73C324.652 2021.53 360.767 2061.2 384.898 2081.18C379.3 2191.49 407.226 2265.69 421.888 2289C479.873 1975.27 549.355 1903.34 658.826 1958.29L660.325 1907.83L803.787 1903.34C855.773 1956.09 937.752 1846.39 972.242 1784.94H1005.73C1084.11 1927.22 1217.01 1943.14 1273.66 1933.31C1280.86 1951.3 1322.32 1985.43 1342.14 2000.25C1353.95 2141.97 1382.88 2106.72 1397.13 2113.15C1491.1 2278.51 1584.08 2257.53 1584.08 2257.53L1584.58 2288.5H1883.5V1712C1733.54 1751.97 1328.31 1571.63 1143.2 1476.71Z" fill="#fff"></path>
<image href="http://localhost:5000/char-texture" width="1885" height="2290" preserveAspectRatio="xMidYMid slice"></image></svg>