<svg fill="none" height="75vh" id="result" viewBox="0 0 1200 927" width="80vw" xmlns="http://www.w3.org/2000/svg">
    <path d="M0.5 629.5V0.5L1199.5 1V654H1046L1049.5 606H1025L968.5 584.5L858 569.5L698.5 572.5L386.5 555L327 524.5V483C320.333 479.333 303.5 471.5 289.5 469.5C275.5 467.5 256.333 479.667 248.5 486L242 530.5L223.5 553L214.5 629L178 654V629.5H0.5Z"
          fill="#556B2F" id="path5"></path>

    <path d="M247 592L223.5 553L242.5 531L248.5 486C267.7 472 281.5 469.5 286 470C289.2 466.8 314.667 477.667 327 483.5L326.5 524.5L387 555.5L701 573L858 570L861.825 570.502L844.5 184H851L857 160L887.721 573.9L968.5 584.5L1025.5 606.5H1049.5L1033 621L1003 667L949.5 702L860.5 726.5L747.5 728L723 724L658 712.5C651.2 716.5 516.167 684.167 449.5 667.5L386 637.5L321.5 608L247 592Z"
          fill="white" id="path2" style="z-index: max(1, 1);"></path>

    <path d="M0 629H178V717H212.282L220.991 711.972L226.815 706L238.209 717.112C248.581 710.471 262.036 709.153 273.994 714.801L348.525 750H357V754.003L371.948 761.062L670.384 795.029C676.44 795.719 681.987 797.833 686.728 801H831.672L921.077 785.55L1011.7 746.991L1025.72 738.762L1039.24 723.148L1044.8 653.411L1052.19 654H1200V927H0V629Z"
          fill="#556B2F" id="path3"></path>

    <path d="M403 524.5C433.8 507.7 471.167 201.833 486 51C561.26 78.2604 685.328 124.693 766 158.815L768.5 155.5C812.1 115.1 843.667 140.333 854 158L850 185C828.4 145.4 800.333 157.657 789 168.736C821.517 183.084 842.972 194.181 844.5 199C845.3 223 855.167 495 860 628C742.4 595.2 570 503 403 524.5Z"
          fill="white" id="path4"></path>

    <path d="M213.5 628.5L223.5 553L246 591L331 611.5L385.5 637.5L446 667L576 698.5L748.5 728L860.5 726L949.5 702L1002.5 667L1032.5 621.5L1049.5 606L1039 723.5L1023.5 739L1002.5 750.5L925 784.5L835.5 801L713 804.5L550 785L397.5 766.5L304.5 735.5L223.5 711.5L178 723V654L213.5 628.5Z"
          fill="white" id="path1" style="z-index: max(1, 1);"></path>
</svg>
