<svg width="237" height="96" viewBox="0 0 237 96" fill="none" xmlns="http://www.w3.org/2000/svg">
<path d="M70.0126 91.3716H4V34.7419C3.99983 16.6742 24.3654 3.99999 37.0063 4C49.6472 4.00001 70.0126 11.8203 70.0126 34.7419V91.3716Z" stroke="white" stroke-width="7.2808"/>
<path d="M81.9609 61.7509V40.0055H84.7567V59.0482H96.2196V61.7509H81.9609ZM102.983 62.1236C101.492 62.1236 100.322 61.7716 99.4729 61.0674C98.6238 60.3633 98.1992 59.4003 98.1992 58.1784C98.1992 56.9772 98.5927 56.0453 99.3797 55.3826C100.187 54.7199 101.15 54.2643 102.269 54.0157C103.387 53.7465 104.661 53.5601 106.09 53.4566C107.332 53.3737 108.285 53.2288 108.948 53.0217C109.631 52.8146 109.973 52.4418 109.973 51.9033C109.973 50.7022 109.569 49.7495 108.761 49.0454C107.954 48.3205 106.939 47.9581 105.717 47.9581C104.433 47.9581 103.377 48.3205 102.548 49.0454C101.72 49.7495 101.213 50.7332 101.026 51.9965H98.6963C98.8205 50.7332 99.1933 49.646 99.8146 48.7347C100.457 47.8028 101.285 47.0986 102.3 46.6223C103.335 46.146 104.485 45.9078 105.748 45.9078C107.032 45.9078 108.161 46.1564 109.134 46.6534C110.128 47.1504 110.894 47.8753 111.433 48.8279C111.992 49.7806 112.272 50.8885 112.272 52.1518V59.5453H114.415V61.7509H110.004V56.6873C109.548 58.3027 108.699 59.6177 107.457 60.6325C106.214 61.6266 104.723 62.1236 102.983 62.1236ZM104.039 60.1355C105.158 60.1355 106.162 59.8766 107.053 59.3589C107.964 58.8204 108.678 58.1163 109.196 57.2465C109.714 56.3559 109.973 55.4033 109.973 54.3885L110.004 53.1459C109.714 53.3944 109.31 53.5808 108.792 53.7051C108.295 53.8293 107.622 53.9225 106.773 53.9847C106.732 53.9847 106.68 53.995 106.618 54.0157C106.556 54.0157 106.504 54.0157 106.462 54.0157C104.495 54.1814 103.045 54.5335 102.113 55.0719C101.181 55.5897 100.715 56.3663 100.715 57.4018C100.715 58.2923 101.016 58.9757 101.616 59.4521C102.217 59.9077 103.025 60.1355 104.039 60.1355ZM127.011 61.7509V40.0055H134C136.589 40.0055 138.619 40.5647 140.089 41.683C141.58 42.7806 142.326 44.2925 142.326 46.2185C142.326 47.7924 141.839 49.0971 140.866 50.1326C139.892 51.1681 138.536 51.8412 136.796 52.1518L144.314 61.7509H141.114L133.783 52.4004C133.679 52.4211 133.565 52.4314 133.441 52.4314C133.338 52.4314 133.234 52.4314 133.131 52.4314H129.776V61.7509H127.011ZM133.721 51.8101C135.523 51.8101 136.941 51.3959 137.977 50.5675C139.012 49.7184 139.53 48.5794 139.53 47.1504C139.53 45.7007 139.012 44.5617 137.977 43.7333C136.941 42.9049 135.523 42.4907 133.721 42.4907H129.776V51.8101H133.721ZM151.067 62.1236C149.576 62.1236 148.406 61.7716 147.557 61.0674C146.707 60.3633 146.283 59.4003 146.283 58.1784C146.283 56.9772 146.676 56.0453 147.463 55.3826C148.271 54.7199 149.234 54.2643 150.352 54.0157C151.471 53.7465 152.744 53.5601 154.173 53.4566C155.416 53.3737 156.369 53.2288 157.031 53.0217C157.715 52.8146 158.056 52.4418 158.056 51.9033C158.056 50.7022 157.653 49.7495 156.845 49.0454C156.037 48.3205 155.022 47.9581 153.801 47.9581C152.517 47.9581 151.46 48.3205 150.632 49.0454C149.804 49.7495 149.296 50.7332 149.11 51.9965H146.78C146.904 50.7332 147.277 49.646 147.898 48.7347C148.54 47.8028 149.369 47.0986 150.383 46.6223C151.419 46.146 152.568 45.9078 153.832 45.9078C155.116 45.9078 156.244 46.1564 157.218 46.6534C158.212 47.1504 158.978 47.8753 159.516 48.8279C160.076 49.7806 160.355 50.8885 160.355 52.1518V59.5453H162.499V61.7509H158.087V56.6873C157.632 58.3027 156.783 59.6177 155.54 60.6325C154.298 61.6266 152.806 62.1236 151.067 62.1236ZM152.123 60.1355C153.241 60.1355 154.246 59.8766 155.136 59.3589C156.048 58.8204 156.762 58.1163 157.28 57.2465C157.798 56.3559 158.056 55.4033 158.056 54.3885L158.087 53.1459C157.798 53.3944 157.394 53.5808 156.876 53.7051C156.379 53.8293 155.706 53.9225 154.857 53.9847C154.815 53.9847 154.764 53.995 154.701 54.0157C154.639 54.0157 154.587 54.0157 154.546 54.0157C152.579 54.1814 151.129 54.5335 150.197 55.0719C149.265 55.5897 148.799 56.3663 148.799 57.4018C148.799 58.2923 149.099 58.9757 149.7 59.4521C150.301 59.9077 151.108 60.1355 152.123 60.1355ZM166.614 61.7509V46.2185H169.099V61.7509H166.614ZM167.701 44.0129L166.272 38.6076H169.472L168.012 44.0129H167.701ZM180.98 62.1236C178.826 62.1236 177.024 61.6266 175.575 60.6325C174.146 59.6385 173.328 58.2198 173.121 56.3767H175.668C175.854 57.5985 176.434 58.5201 177.408 59.1414C178.381 59.742 179.541 60.0423 180.887 60.0423C181.55 60.0423 182.212 59.9491 182.875 59.7627C183.538 59.5763 184.097 59.2657 184.552 58.8308C185.008 58.3959 185.236 57.8471 185.236 57.1843C185.236 56.563 185.049 56.066 184.677 55.6932C184.325 55.3205 183.838 55.0409 183.217 54.8545C182.595 54.6681 181.746 54.4921 180.669 54.3264C180.545 54.3057 180.421 54.285 180.297 54.2643C180.172 54.2435 180.038 54.2228 179.893 54.2021C178.505 53.995 177.366 53.7672 176.476 53.5187C175.606 53.2495 174.912 52.8663 174.394 52.3693C173.897 51.8723 173.649 51.1888 173.649 50.319C173.649 49.3457 173.949 48.5276 174.55 47.8649C175.15 47.1815 175.937 46.6741 176.911 46.3427C177.905 46.0114 179.002 45.8457 180.203 45.8457C182.274 45.8457 183.973 46.3427 185.298 47.3368C186.623 48.3102 187.369 49.7184 187.535 51.5616H185.081C184.936 50.3604 184.418 49.4596 183.527 48.859C182.637 48.2584 181.56 47.9581 180.297 47.9581C179.199 47.9581 178.226 48.2066 177.376 48.7037C176.548 49.18 176.134 49.9152 176.134 50.9093C176.134 51.4477 176.3 51.9033 176.631 52.2761C176.962 52.6282 177.428 52.9078 178.029 53.1149C178.629 53.3012 179.385 53.4773 180.297 53.643C180.462 53.6637 180.618 53.6844 180.763 53.7051C180.907 53.7258 181.063 53.7465 181.229 53.7672C181.311 53.7879 181.384 53.7983 181.446 53.7983C181.508 53.7983 181.581 53.8086 181.663 53.8293C182.989 54.0364 184.066 54.2746 184.894 54.5438C185.743 54.8131 186.406 55.2169 186.882 55.7554C187.379 56.2731 187.628 56.9565 187.628 57.8056C187.628 58.7583 187.307 59.566 186.665 60.2287C186.023 60.8707 185.194 61.347 184.18 61.6577C183.186 61.9683 182.119 62.1236 180.98 62.1236ZM198.899 62.0615C197.346 62.0615 195.927 61.7094 194.643 61.0053C193.38 60.3012 192.386 59.3382 191.661 58.1163C190.957 56.8737 190.605 55.4965 190.605 53.9847C190.605 52.4729 190.957 51.106 191.661 49.8841C192.386 48.6415 193.38 47.6682 194.643 46.964C195.927 46.2599 197.346 45.9078 198.899 45.9078C200.432 45.9078 201.829 46.2599 203.093 46.964C204.356 47.6682 205.35 48.6415 206.075 49.8841C206.821 51.106 207.193 52.4729 207.193 53.9847C207.193 55.4965 206.821 56.8737 206.075 58.1163C205.35 59.3382 204.356 60.3012 203.093 61.0053C201.829 61.7094 200.432 62.0615 198.899 62.0615ZM198.899 59.7316C199.955 59.7316 200.918 59.4831 201.788 58.9861C202.679 58.4683 203.372 57.7746 203.869 56.9048C204.387 56.0349 204.646 55.0616 204.646 53.9847C204.646 52.9078 204.387 51.9344 203.869 51.0646C203.372 50.1741 202.679 49.4803 201.788 48.9832C200.918 48.4655 199.955 48.2066 198.899 48.2066C197.822 48.2066 196.838 48.4655 195.948 48.9832C195.078 49.4803 194.384 50.1741 193.867 51.0646C193.369 51.9344 193.121 52.9078 193.121 53.9847C193.121 55.0616 193.369 56.0349 193.867 56.9048C194.384 57.7746 195.078 58.4683 195.948 58.9861C196.838 59.4831 197.822 59.7316 198.899 59.7316ZM211.603 61.7509V46.2185H214.088V51.0956C214.482 49.5217 215.217 48.2688 216.294 47.3368C217.371 46.3842 218.634 45.9078 220.084 45.9078C221.388 45.9078 222.517 46.2081 223.47 46.8087C224.443 47.4093 225.178 48.2688 225.675 49.3871C226.193 50.4847 226.452 51.7894 226.452 53.3012V61.7509H223.967V53.643C223.967 51.9862 223.522 50.6711 222.631 49.6977C221.761 48.7244 220.56 48.2377 219.027 48.2377C218.116 48.2377 217.278 48.4759 216.511 48.9522C215.766 49.4285 215.175 50.0809 214.741 50.9093C214.306 51.7377 214.088 52.6489 214.088 53.643V61.7509H211.603ZM86.807 91.0615C85.4815 91.0615 84.2804 90.7094 83.2035 90.0053C82.1265 89.3012 81.2774 88.3382 80.6561 87.1163C80.0349 85.8737 79.7242 84.4965 79.7242 82.9847C79.7242 81.4729 80.0349 80.106 80.6561 78.8841C81.2774 77.6415 82.1265 76.6682 83.2035 75.964C84.2804 75.2599 85.4815 74.9078 86.807 74.9078C88.3809 74.9078 89.7374 75.3945 90.8764 76.3679C92.0362 77.3412 92.8542 78.6356 93.3306 80.251V68.6949H95.7847V90.7509H93.3306V85.6873C92.8542 87.3234 92.0362 88.6281 90.8764 89.6015C89.7374 90.5748 88.3809 91.0615 86.807 91.0615ZM87.801 88.7316C88.8365 88.7316 89.7788 88.4831 90.6279 87.9861C91.477 87.4683 92.1397 86.7746 92.6161 85.9048C93.1131 85.0349 93.3616 84.0616 93.3616 82.9847C93.3616 81.9078 93.1131 80.9344 92.6161 80.0646C92.1397 79.1741 91.477 78.4803 90.6279 77.9832C89.7788 77.4655 88.8365 77.2066 87.801 77.2066C86.7655 77.2066 85.8232 77.4655 84.9741 77.9832C84.125 78.4803 83.452 79.1741 82.9549 80.0646C82.4786 80.9344 82.2404 81.9078 82.2404 82.9847C82.2404 84.0616 82.4786 85.0349 82.9549 85.9048C83.452 86.7746 84.125 87.4683 84.9741 87.9861C85.8232 88.4831 86.7655 88.7316 87.801 88.7316ZM108.402 91.0615C106.869 91.0615 105.482 90.7094 104.239 90.0053C102.997 89.3012 102.013 88.3485 101.288 87.1473C100.584 85.9255 100.232 84.5586 100.232 83.0468C100.232 81.4936 100.594 80.106 101.319 78.8841C102.044 77.6415 103.028 76.6682 104.27 75.964C105.513 75.2599 106.9 74.9078 108.433 74.9078C109.945 74.9078 111.312 75.2599 112.533 75.964C113.776 76.6682 114.749 77.6415 115.454 78.8841C116.178 80.106 116.541 81.4729 116.541 82.9847C116.541 83.0261 116.541 83.0779 116.541 83.14C116.541 83.2021 116.541 83.2539 116.541 83.2953H102.655C102.696 84.3308 102.976 85.2731 103.494 86.1222C104.011 86.9506 104.695 87.6133 105.544 88.1104C106.414 88.5867 107.377 88.8248 108.433 88.8248C109.593 88.8248 110.618 88.566 111.508 88.0482C112.399 87.5098 113.01 86.816 113.341 85.9669H115.982C115.795 86.8781 115.35 87.7272 114.646 88.5142C113.962 89.2805 113.082 89.9018 112.005 90.3781C110.928 90.8337 109.727 91.0615 108.402 91.0615ZM114.18 82.674C114.138 81.6385 113.859 80.7066 113.341 79.8782C112.823 79.0291 112.13 78.3664 111.26 77.89C110.411 77.393 109.468 77.1445 108.433 77.1445C107.397 77.1445 106.445 77.393 105.575 77.89C104.726 78.3664 104.032 79.0291 103.494 79.8782C102.976 80.7066 102.696 81.6385 102.655 82.674H114.18ZM129.286 90.7509V69.0055H136.276C138.864 69.0055 140.894 69.5647 142.364 70.683C143.855 71.7806 144.601 73.2925 144.601 75.2185C144.601 76.7924 144.114 78.0971 143.141 79.1326C142.168 80.1681 140.811 80.8412 139.071 81.1518L146.589 90.7509H143.389L136.058 81.4004C135.955 81.4211 135.841 81.4314 135.716 81.4314C135.613 81.4314 135.509 81.4314 135.406 81.4314H132.051V90.7509H129.286ZM135.996 80.8101C137.798 80.8101 139.216 80.3959 140.252 79.5675C141.287 78.7184 141.805 77.5794 141.805 76.1504C141.805 74.7007 141.287 73.5617 140.252 72.7333C139.216 71.9049 137.798 71.4907 135.996 71.4907H132.051V80.8101H135.996ZM156.425 91.0615C154.892 91.0615 153.505 90.7094 152.262 90.0053C151.019 89.3012 150.036 88.3485 149.311 87.1473C148.607 85.9255 148.255 84.5586 148.255 83.0468C148.255 81.4936 148.617 80.106 149.342 78.8841C150.067 77.6415 151.051 76.6682 152.293 75.964C153.536 75.2599 154.923 74.9078 156.456 74.9078C157.968 74.9078 159.334 75.2599 160.556 75.964C161.799 76.6682 162.772 77.6415 163.476 78.8841C164.201 80.106 164.564 81.4729 164.564 82.9847C164.564 83.0261 164.564 83.0779 164.564 83.14C164.564 83.2021 164.564 83.2539 164.564 83.2953H150.678C150.719 84.3308 150.999 85.2731 151.517 86.1222C152.034 86.9506 152.718 87.6133 153.567 88.1104C154.437 88.5867 155.4 88.8248 156.456 88.8248C157.616 88.8248 158.641 88.566 159.531 88.0482C160.422 87.5098 161.033 86.816 161.364 85.9669H164.005C163.818 86.8781 163.373 87.7272 162.669 88.5142C161.985 89.2805 161.105 89.9018 160.028 90.3781C158.951 90.8337 157.75 91.0615 156.425 91.0615ZM162.203 82.674C162.161 81.6385 161.882 80.7066 161.364 79.8782C160.846 79.0291 160.153 78.3664 159.283 77.89C158.434 77.393 157.491 77.1445 156.456 77.1445C155.42 77.1445 154.468 77.393 153.598 77.89C152.749 78.3664 152.055 79.0291 151.517 79.8782C150.999 80.7066 150.719 81.6385 150.678 82.674H162.203ZM174.51 91.0615C173.185 91.0615 171.984 90.7094 170.907 90.0053C169.83 89.3012 168.981 88.3382 168.359 87.1163C167.738 85.8737 167.428 84.4965 167.428 82.9847C167.428 81.4729 167.738 80.106 168.359 78.8841C168.981 77.6415 169.83 76.6682 170.907 75.964C171.984 75.2599 173.185 74.9078 174.51 74.9078C176.084 74.9078 177.441 75.3945 178.58 76.3679C179.739 77.3412 180.558 78.6356 181.034 80.251V68.6949H183.488V90.7509H181.034V85.6873C180.558 87.3234 179.739 88.6281 178.58 89.6015C177.441 90.5748 176.084 91.0615 174.51 91.0615ZM175.504 88.7316C176.54 88.7316 177.482 88.4831 178.331 87.9861C179.18 87.4683 179.843 86.7746 180.319 85.9048C180.816 85.0349 181.065 84.0616 181.065 82.9847C181.065 81.9078 180.816 80.9344 180.319 80.0646C179.843 79.1741 179.18 78.4803 178.331 77.9832C177.482 77.4655 176.54 77.2066 175.504 77.2066C174.469 77.2066 173.527 77.4655 172.677 77.9832C171.828 78.4803 171.155 79.1741 170.658 80.0646C170.182 80.9344 169.944 81.9078 169.944 82.9847C169.944 84.0616 170.182 85.0349 170.658 85.9048C171.155 86.7746 171.828 87.4683 172.677 87.9861C173.527 88.4831 174.469 88.7316 175.504 88.7316ZM196.229 91.0615C194.676 91.0615 193.258 90.7094 191.974 90.0053C190.71 89.3012 189.716 88.3382 188.991 87.1163C188.287 85.8737 187.935 84.4965 187.935 82.9847C187.935 81.4729 188.287 80.106 188.991 78.8841C189.716 77.6415 190.71 76.6682 191.974 75.964C193.258 75.2599 194.676 74.9078 196.229 74.9078C197.762 74.9078 199.16 75.2599 200.423 75.964C201.686 76.6682 202.68 77.6415 203.405 78.8841C204.151 80.106 204.524 81.4729 204.524 82.9847C204.524 84.4965 204.151 85.8737 203.405 87.1163C202.68 88.3382 201.686 89.3012 200.423 90.0053C199.16 90.7094 197.762 91.0615 196.229 91.0615ZM196.229 88.7316C197.286 88.7316 198.249 88.4831 199.118 87.9861C200.009 87.4683 200.703 86.7746 201.2 85.9048C201.717 85.0349 201.976 84.0616 201.976 82.9847C201.976 81.9078 201.717 80.9344 201.2 80.0646C200.703 79.1741 200.009 78.4803 199.118 77.9832C198.249 77.4655 197.286 77.2066 196.229 77.2066C195.152 77.2066 194.169 77.4655 193.278 77.9832C192.408 78.4803 191.715 79.1741 191.197 80.0646C190.7 80.9344 190.451 81.9078 190.451 82.9847C190.451 84.0616 190.7 85.0349 191.197 85.9048C191.715 86.7746 192.408 87.4683 193.278 87.9861C194.169 88.4831 195.152 88.7316 196.229 88.7316ZM208.933 90.7509V75.2185H211.419V80.0956C211.812 78.5217 212.547 77.2688 213.624 76.3368C214.701 75.3842 215.964 74.9078 217.414 74.9078C218.719 74.9078 219.847 75.2081 220.8 75.8087C221.773 76.4093 222.509 77.2688 223.006 78.3871C223.523 79.4847 223.782 80.7894 223.782 82.3012V90.7509H221.297V82.643C221.297 80.9862 220.852 79.6711 219.961 78.6977C219.092 77.7244 217.89 77.2377 216.358 77.2377C215.447 77.2377 214.608 77.4759 213.842 77.9522C213.096 78.4285 212.506 79.0809 212.071 79.9093C211.636 80.7377 211.419 81.6489 211.419 82.643V90.7509H208.933Z" fill="white"/>
<path d="M60.7903 56.2277C60.7903 59.506 58.5976 62.8711 54.2069 65.5447C49.8592 68.192 43.698 69.9084 36.7636 69.9084C29.8292 69.9084 23.6681 68.192 19.3203 65.5447C14.9296 62.8711 12.737 59.506 12.737 56.2277C12.737 52.9495 14.9296 49.5843 19.3203 46.9108C23.6681 44.2635 29.8292 42.5471 36.7636 42.5471C43.698 42.5471 49.8592 44.2635 54.2069 46.9108C58.5976 49.5843 60.7903 52.9495 60.7903 56.2277Z" stroke="white" stroke-width="4.85387"/>
<mask id="path-4-inside-1_552_210" fill="white">
<ellipse cx="36.5805" cy="56.6181" rx="12.1347" ry="12.2027"/>
</mask>
<path d="M30.7527 56.6181C30.7527 53.532 33.2673 50.8585 36.5805 50.8585V86.7833C53.2972 86.7833 66.6776 73.183 66.6776 56.6181H30.7527ZM36.5805 50.8585C39.8937 50.8585 42.4082 53.532 42.4082 56.6181H6.48336C6.48336 73.183 19.8637 86.7833 36.5805 86.7833V50.8585ZM42.4082 56.6181C42.4082 59.7043 39.8937 62.3778 36.5805 62.3778V26.453C19.8637 26.453 6.48336 40.0533 6.48336 56.6181H42.4082ZM36.5805 62.3778C33.2673 62.3778 30.7527 59.7043 30.7527 56.6181H66.6776C66.6776 40.0533 53.2972 26.453 36.5805 26.453V62.3778Z" fill="white" mask="url(#path-4-inside-1_552_210)"/>
<path d="M18.076 45.8539L14.1929 37.0383" stroke="white" stroke-width="2.42693" stroke-linecap="round"/>
<path d="M27.9715 41.4906L25.6545 32.0674" stroke="white" stroke-width="2.42693" stroke-linecap="round"/>
<path d="M48.2934 42.8447L51.9663 33.9269" stroke="white" stroke-width="2.42693" stroke-linecap="round"/>
<path d="M56.3061 47.9562L61.7625 40.1495" stroke="white" stroke-width="2.42693" stroke-linecap="round"/>
<path d="M38.8955 41.0353L39.7388 31.3341" stroke="white" stroke-width="2.42693" stroke-linecap="round"/>
<path d="M18.076 66.9218L14.1929 72.8757" stroke="white" stroke-width="2.42693" stroke-linecap="round"/>
<path d="M27.9715 69.8688L25.6545 76.2332" stroke="white" stroke-width="2.42693" stroke-linecap="round"/>
<path d="M48.2934 68.9543L51.9663 74.9773" stroke="white" stroke-width="2.42693" stroke-linecap="round"/>
<path d="M56.3061 65.5019L61.7625 70.7744" stroke="white" stroke-width="2.42693" stroke-linecap="round"/>
<path d="M38.8955 70.1764L39.7388 76.7285" stroke="white" stroke-width="2.42693" stroke-linecap="round"/>
</svg>
